<svg width="24" height="24" viewBox="0 0 24 24" fill="none" xmlns="http://www.w3.org/2000/svg">
<path d="M12 22C13.9778 22 15.9112 21.4135 17.5557 20.3147C19.2002 19.2159 20.4819 17.6541 21.2388 15.8268C21.9957 13.9996 22.1937 11.9889 21.8079 10.0491C21.422 8.10929 20.4696 6.32746 19.0711 4.92894C17.6725 3.53041 15.8907 2.578 13.9509 2.19215C12.0111 1.8063 10.0004 2.00433 8.17317 2.76121C6.3459 3.51809 4.78412 4.79981 3.6853 6.4443C2.58649 8.08879 2 10.0222 2 12C2.00765 14.6498 3.06368 17.1889 4.93738 19.0626C6.81109 20.9363 9.35019 21.9924 12 22V22Z" stroke="#E96666" stroke-width="1.5" stroke-linecap="round" stroke-linejoin="round"/>
<path d="M12 8V13" stroke="#E96666" stroke-width="1.5" stroke-linecap="round" stroke-linejoin="round"/>
<path d="M11.9961 16H12.0051" stroke="#E96666" stroke-width="2" stroke-linecap="round" stroke-linejoin="round"/>
</svg>
