<?xml version="1.0" encoding="utf-8"?>
<!-- Generator: Adobe Illustrator 27.7.0, SVG Export Plug-In . SVG Version: 6.00 Build 0)  -->
<svg version="1.1" xmlns="http://www.w3.org/2000/svg" xmlns:xlink="http://www.w3.org/1999/xlink" x="0px" y="0px"
	 viewBox="0 0 638.5 712" style="enable-background:new 0 0 638.5 712;" xml:space="preserve">
<style type="text/css">
	.st0{display:none;}
	.st1{display:inline;fill:#EBEBEB;}
	.st2{fill:#262B39;}
	.st3{fill:#F5F5F5;}
	.st4{fill:#EBEBEB;}
	.st5{fill:#E0E0E0;}
	.st6{fill:#E8505B;}
	.st7{fill:#FFFFFF;}
	.st8{fill:#455A64;}
	.st9{fill:#DF9740;}
	.st10{fill:#FFBE9D;}
	.st11{fill:#263238;}
	.st12{fill:#EB996E;}
	.st13{fill:#B78876;}
	.st14{fill:#A36957;}
	.st15{fill:none;stroke:#4E585D;stroke-width:5.000000e-02;stroke-miterlimit:10;}
	.st16{opacity:0.2;}
	.st17{fill:#FAFAFA;}
	.st18{fill:none;stroke:#FFFFFF;stroke-width:0.5;stroke-miterlimit:10;}
	.st19{fill:none;stroke:#F7CA61;stroke-width:0.75;stroke-miterlimit:10;}
	.st20{fill:none;stroke:#F4B9C8;stroke-width:0.75;stroke-miterlimit:10;}
	.st21{fill:none;stroke:#EA5F33;stroke-width:0.75;stroke-miterlimit:10;}
	.st22{opacity:0.1;fill:none;stroke:#FFFFFF;stroke-miterlimit:10;}
</style>
<g id="Background_Complete">
</g>
<g id="Background_Simple" class="st0">
</g>
<g id="Icons">
</g>
<g id="Speech_Bubbles">
</g>
<g id="Character_3">
</g>
<g id="Character_2">
</g>
<g id="Character_1">
	<rect class="st2" width="638.5" height="712"/>
	<g>
		<g>
			<g>
				<polygon class="st3" points="487.8,407.4 480.1,399.1 482.6,396.8 487.9,402.5 499.1,391.5 501.5,393.9 				"/>
			</g>
			<path class="st4" d="M401.4,439.4c0-5.7-5.9-9.2-12-6.4c-1.4,0.6-2.5,1.7-3.2,3.1c-1.5,3-0.9,6.3,0.5,9.1l4.7,11.9
				c0.7,1.7,3.1,1.7,3.8,0l4.6-12C401.5,441.4,401.4,439.4,401.4,439.4z M395.7,444.3c-4.1,2.4-8.2-2-6-6.3c0.3-0.6,0.8-1.1,1.3-1.4
				c4.1-2.4,8.2,2,6,6.3C396.7,443.5,396.2,444,395.7,444.3z"/>
			<g>
				<g>
					<path class="st4" d="M446.4,534.7c-12.7-11.6-13.4-30-10.7-46c0.5-2.7,0.6-5.6,2.2-7.7c1.6-2.2,4.9-3.4,7.2-1.9
						c1.9,1.2,2.5,3.7,3.3,5.7c1.2,2.8,3.1,5.2,5.6,6.9c1.6,1.1,3.7,2,5.5,1.3c2.5-1,3.2-4.1,3.6-6.8c0.7-5,1.3-10,2-15
						c0.3-2.7,0.7-5.4,1.9-7.8c1.2-2.4,3.4-4.5,6.1-4.9c2.7-0.4,5.7,1.5,5.9,4.2c0.1,1.1-0.3,2.2-0.4,3.3c-0.1,1.1,0.3,2.4,1.3,2.9
						c1,0.5,2.2-0.1,3.1-0.8c3.2-2.3,5.5-5.5,7.8-8.8c2.2-3.2,4.5-6.5,7.4-9.1c2.9-2.6,6.8-4.5,10.7-4.1c3.9,0.3,7.7,3.3,8.2,7.2
						c0.5,3.9-2.3,7.4-5.1,10.2c-4.2,4-9,7.5-14.2,10.1c-0.9,0.5-2,1-2.4,1.9c-0.8,1.7,0.6,3.7,2.3,4.5c1.9,0.9,4.2,1,6.2,1.6
						c2.1,0.5,4.2,1.8,4.8,3.9c0.7,2.9-2,5.4-4.5,7c-5.1,3.1-10.7,5.4-16.5,6.6c-2.1,0.4-4.3,0.8-6.1,2c-1.8,1.2-3.1,3.4-2.4,5.5
						c0.7,2,3.1,3,5.3,2.9c2.1-0.1,4.2-1,6.3-1.4c3.9-0.9,8.7,0,10.6,3.5c1.3,2.3,1,5.2-0.1,7.6c-1.1,2.4-3,4.3-5,6.1
						c-6.9,6.1-15.3,10.6-24.4,12.4C462.7,539.2,454.5,538.9,446.4,534.7"/>
				</g>
				<g>
					<g>
						<path class="st5" d="M447.4,541.2c1.5-6.3,1.1-8.2,4.6-16c3.5-7.8,8.1-16,13.2-24.5c1.3-2.1,2.5-4.2,3.8-6.2
							c1.2-2,2.5-4.1,3.8-6c2.7-3.8,5.5-7.3,8.3-10.5c2.8-3.2,5.6-6.2,8.2-8.9c2.6-2.7,5.1-5.3,7.5-7.5c4.7-4.4,9-7.5,12-9.5
							c1.5-1,2.7-1.8,3.5-2.3c0.4-0.2,0.7-0.4,0.9-0.6c0.2-0.1,0.3-0.2,0.3-0.2s-0.1,0.1-0.3,0.2c-0.2,0.1-0.5,0.3-0.9,0.6
							c-0.8,0.5-2,1.3-3.5,2.3c-3,2.1-7.2,5.2-11.9,9.6c-2.4,2.2-4.8,4.7-7.5,7.5c-2.6,2.8-5.4,5.7-8.2,9c-2.8,3.2-5.6,6.7-8.3,10.5
							c-1.3,1.9-2.6,3.9-3.8,6c-1.2,2.1-2.5,4.1-3.8,6.2c-5.1,8.4-9.7,16.7-13.2,24.4c-3.5,7.8-3.2,9.7-4.7,16"/>
					</g>
				</g>
				<g>
					<g>
						<path class="st5" d="M472.9,488.4c0,0-0.1-0.4-0.1-1.2c0-0.8-0.1-1.9-0.1-3.2c0-2.7,0.1-6.5,0.2-10.6
							c0.1-4.1,0.2-7.9,0.1-10.6c0-1.4-0.1-2.5-0.1-3.2c0-0.8,0-1.2,0-1.2c0,0,0.1,0.4,0.2,1.2c0.1,0.8,0.2,1.9,0.2,3.2
							c0.1,2.7,0.1,6.5,0,10.6c-0.1,4.1-0.3,7.8-0.3,10.6c0,1.3-0.1,2.4-0.1,3.2C473,488,472.9,488.4,472.9,488.4z"/>
					</g>
				</g>
				<g>
					<g>
						<path class="st5" d="M508.7,486.8c0,0-0.1,0-0.4,0c-0.3,0-0.6,0-1-0.1c-0.9-0.1-2.2-0.1-3.8-0.2c-3.2-0.1-7.7-0.1-12.7,0.1
							c-4.9,0.2-9.4,0.7-12.6,1.1c-1.6,0.2-2.9,0.4-3.8,0.5c-0.4,0.1-0.8,0.1-1,0.1c-0.2,0-0.4,0-0.4,0c0,0,0.1,0,0.4-0.1
							c0.3-0.1,0.6-0.1,1-0.2c0.9-0.2,2.2-0.4,3.8-0.6c3.2-0.5,7.7-0.9,12.6-1.2c5-0.2,9.5-0.2,12.7,0c1.6,0.1,2.9,0.2,3.8,0.3
							c0.4,0.1,0.8,0.1,1,0.1C508.5,486.7,508.7,486.7,508.7,486.8z"/>
					</g>
				</g>
				<g>
					<g>
						<path class="st5" d="M452.5,524.6c0,0-0.1-0.2-0.2-0.5c-0.1-0.3-0.2-0.8-0.4-1.3c-0.4-1.2-0.8-2.8-1.4-4.9
							c-1.1-4.2-2.5-10-4-16.4c-1.5-6.4-2.8-12.3-3.9-16.4c-0.5-2.1-1-3.7-1.3-5c-0.1-0.6-0.3-1-0.3-1.3c-0.1-0.3-0.1-0.5-0.1-0.5
							c0,0,0.1,0.2,0.2,0.5c0.1,0.3,0.2,0.8,0.4,1.3c0.4,1.2,0.8,2.8,1.4,4.9c1.1,4.2,2.5,10,4,16.4c1.5,6.4,2.8,12.3,3.9,16.4
							c0.5,2.1,1,3.7,1.3,5c0.1,0.6,0.3,1,0.3,1.3C452.5,524.4,452.5,524.5,452.5,524.6z"/>
					</g>
				</g>
				<g>
					<g>
						<path class="st5" d="M500.8,516.2c0,0-0.2,0.1-0.5,0.1c-0.4,0.1-0.8,0.1-1.4,0.3c-1.3,0.2-3,0.5-5.2,0.9
							c-4.4,0.8-10.4,1.9-17.1,3.1c-6.7,1.3-12.7,2.3-17.1,3c-2.2,0.3-4,0.6-5.2,0.8c-0.6,0.1-1.1,0.1-1.4,0.2c-0.3,0-0.5,0-0.5,0
							c0,0,0.2-0.1,0.5-0.1c0.4-0.1,0.8-0.1,1.4-0.3c1.3-0.2,3-0.5,5.2-0.9c4.4-0.8,10.4-1.9,17.1-3.1c6.7-1.3,12.7-2.3,17.1-3
							c2.2-0.3,4-0.6,5.2-0.8c0.6-0.1,1.1-0.1,1.4-0.2C500.7,516.2,500.8,516.2,500.8,516.2z"/>
					</g>
				</g>
			</g>
			<g>
				<path class="st4" d="M104.5,453.8c0,0,3.9-4.5,12.9,5.4c8.9,9.9,13,15.9,13,15.9s2.2,2,3.4,0c1.2-2,2.3-7.1,5.3-7
					c3.1,0,5,3,5.7,7.9c0.7,4.9,2.8,15.6,2.9,16.6c0.2,0.9,1.1,2.2,2.1,0.9c1.1-1.2,6.2-11.5,11-8.8c4.7,2.8,4.6,16.8,4.6,18.3
					c0,1.5,0.5,2.1,1.2,2.2c0.8,0.2,2.2-3.5,3.8-6.3c1.6-2.9,3.9-5.9,6.6-4.1c2.6,1.8,5.9,11.4,0.9,29.8l-2.9,8.4l-8.7,1.9
					c-18.8,2.8-28-1.5-29.5-4.3s1.8-4.8,4.8-6c3-1.3,6.8-2.2,6.7-3c-0.1-0.8-0.6-1.3-2.1-1.5c-1.5-0.2-15.5-1.6-17.7-6.6
					c-2.2-5,8.6-9,10-9.9c1.4-0.9,0.2-1.9-0.7-2.2c-0.9-0.3-11.3-3.5-16.1-4.8c-4.8-1.3-7.5-3.5-7.2-6.6c0.3-3,5.5-3.5,7.6-4.4
					c2.1-1,0.4-3.4,0.4-3.4s-5.5-4.7-14.3-14.7C99.5,457.2,104.5,453.7,104.5,453.8"/>
				<g>
					<path class="st5" d="M112.5,462.6c0,0,0.1,0.1,0.2,0.2c0.1,0.1,0.3,0.3,0.5,0.5c0.4,0.5,1,1.2,1.8,2c1.6,1.8,3.9,4.4,6.7,7.5
						c5.7,6.4,13.5,15.1,22.2,24.8c8.7,9.7,16.5,18.4,22.1,24.8c2.8,3.2,5,5.8,6.6,7.6c0.8,0.9,1.4,1.6,1.8,2.1
						c0.2,0.2,0.3,0.4,0.5,0.5c0.1,0.1,0.2,0.2,0.1,0.2c0,0-0.1-0.1-0.2-0.2c-0.1-0.1-0.3-0.3-0.5-0.5c-0.4-0.5-1-1.2-1.8-2
						c-1.6-1.8-3.9-4.4-6.7-7.5c-5.7-6.4-13.5-15.1-22.2-24.8c-8.7-9.7-16.5-18.4-22.1-24.8c-2.8-3.2-5-5.8-6.6-7.6
						c-0.8-0.9-1.4-1.6-1.8-2.1c-0.2-0.2-0.3-0.4-0.5-0.5C112.5,462.7,112.5,462.6,112.5,462.6z"/>
				</g>
				<g>
					<path class="st5" d="M137.8,475.1c0,0,0.1,0.9,0.1,2.4c0,1.6,0.1,3.5,0.2,5.7c0.1,2.2,0.1,4.3,0.1,5.7c0,0.7,0,1.3,0,1.7
						c0,0.4-0.1,0.6-0.1,0.6c0,0-0.1-0.9-0.1-2.4c-0.1-1.6-0.1-3.5-0.2-5.7c-0.1-2.2-0.1-4.3-0.1-5.7c0-0.7,0-1.3,0.1-1.7
						C137.7,475.4,137.8,475.1,137.8,475.1z"/>
				</g>
				<g>
					<path class="st5" d="M137.3,491.7c0,0.1-4.2,0.1-9.4,0c-5.2-0.1-9.4-0.2-9.4-0.3c0-0.1,4.2-0.1,9.4,0
						C133.2,491.5,137.3,491.6,137.3,491.7z"/>
				</g>
				<g>
					<path class="st5" d="M153.5,508c0,0-0.2,0.1-0.6,0.3c-0.4,0.1-1,0.3-1.7,0.6c-1.4,0.5-3.4,1-5.7,1.5c-2.2,0.5-4.3,0.9-5.8,1.1
						c-0.7,0.1-1.3,0.2-1.8,0.2c-0.4,0-0.7,0.1-0.7,0c0,0,0.9-0.2,2.4-0.5c1.5-0.3,3.5-0.7,5.7-1.2c2.2-0.5,4.2-1,5.7-1.4
						C152.6,508.2,153.4,508,153.5,508z"/>
				</g>
				<g>
					<path class="st5" d="M157.2,493.1c0,0-0.1,0.9-0.5,2.2c-0.3,1.3-0.8,3.2-1.3,5.2c-0.5,2-1,3.9-1.4,5.2s-0.6,2.1-0.7,2.1
						c0,0,0.1-0.9,0.5-2.2s0.8-3.2,1.3-5.2c0.5-2,1-3.9,1.4-5.2C156.9,493.9,157.1,493.1,157.2,493.1z"/>
				</g>
				<g>
					<path class="st5" d="M173.2,505.7c0,0,0,0.3-0.1,0.8c-0.1,0.6-0.3,1.2-0.5,2c-0.4,1.7-1.1,4.1-1.8,6.7c-0.7,2.6-1.4,5-1.9,6.7
						c-0.2,0.8-0.4,1.5-0.6,2c-0.2,0.5-0.2,0.7-0.3,0.7s0-0.3,0.1-0.8c0.1-0.6,0.3-1.2,0.5-2c0.4-1.7,1.1-4.1,1.8-6.7
						c0.7-2.6,1.4-5,1.9-6.7c0.2-0.8,0.4-1.5,0.6-2C173.1,506,173.2,505.7,173.2,505.7z"/>
				</g>
				<g>
					<path class="st5" d="M168.1,524.2c0,0-0.3,0.1-0.8,0.3c-0.5,0.2-1.2,0.4-2.2,0.6c-1.8,0.5-4.4,1.1-7.2,1.7
						c-2.8,0.6-5.4,1-7.3,1.3c-0.9,0.1-1.7,0.2-2.2,0.3c-0.5,0.1-0.8,0.1-0.8,0.1c0,0,0.3-0.1,0.8-0.2c0.6-0.1,1.3-0.2,2.2-0.4
						c1.9-0.3,4.5-0.8,7.3-1.4c2.8-0.6,5.4-1.2,7.3-1.6c0.9-0.2,1.6-0.4,2.2-0.5C167.8,524.2,168.1,524.1,168.1,524.2z"/>
				</g>
			</g>
		</g>
		<g>
			<path class="st6" d="M453.8,391.9c2.3-1,3.9-3.3,3.9-6c0-3.6-2.7-6.5-6.1-6.6c-3.4,0-6.1,2.9-6.1,6.5c0,2.8,1.6,5.1,3.9,6.1
				c-9.4,1.4-9,11.7-9,11.7l22.3,0.1C462.6,403.7,463.1,393.3,453.8,391.9z"/>
		</g>
		<g>
			<path class="st7" d="M78.3,527.7c1.7-0.7,2.8-2.4,2.8-4.4c0-2.6-2-4.8-4.5-4.8c-2.5,0-4.5,2.1-4.5,4.8c0,2,1.2,3.8,2.9,4.5
				c-6.9,1-6.6,8.5-6.6,8.5l16.3,0.1C84.7,536.3,85.1,528.8,78.3,527.7z"/>
		</g>
		<g>
			<g>
				
					<rect x="286.1" y="370.6" transform="matrix(0.9955 -9.444167e-02 9.444167e-02 0.9955 -34.7987 30.4449)" class="st7" width="36.3" height="24.5"/>
				<g>
					<path class="st8" d="M323.5,393.3c0,0,0-0.2-0.1-0.5c0-0.3-0.1-0.7-0.1-1.3c-0.1-1.1-0.3-2.8-0.5-4.9c-0.4-4.2-1-10.3-1.7-17.7
						l0.1,0.1c-10,1-22.5,2.2-36.1,3.5c0,0,0.3-0.3,0.1-0.2l0,0l0,0l0,0l0,0.1l0,0.1l0,0.2l0,0.4l0.1,0.8c0.1,0.5,0.1,1.1,0.2,1.6
						c0.1,1.1,0.2,2.1,0.3,3.2c0.2,2.1,0.4,4.2,0.6,6.2c0.4,4.1,0.8,8,1.1,11.7l-0.2-0.1c10.6-1,19.6-1.8,26-2.4
						c3.2-0.3,5.7-0.5,7.5-0.7c0.9-0.1,1.5-0.1,2-0.2c0.2,0,0.4,0,0.5,0C323.4,393.3,323.5,393.3,323.5,393.3c0,0-0.1,0-0.2,0
						c-0.1,0-0.3,0-0.5,0.1c-0.5,0-1.1,0.1-2,0.2c-1.7,0.2-4.2,0.4-7.4,0.7c-6.4,0.6-15.4,1.5-26.1,2.6l-0.2,0l0-0.2
						c-0.4-3.7-0.7-7.6-1.1-11.7c-0.2-2-0.4-4.1-0.6-6.2c-0.1-1.1-0.2-2.1-0.3-3.2c-0.1-0.5-0.1-1.1-0.2-1.6l-0.1-0.8l0-0.4l0-0.2
						l0-0.1l0-0.1l0,0l0,0l0,0c-0.1,0.2,0.2-0.2,0.2-0.2c13.6-1.3,26.2-2.5,36.1-3.4l0.1,0l0,0.1c0.7,7.4,1.2,13.5,1.6,17.8
						c0.2,2.1,0.3,3.7,0.4,4.9c0,0.5,0.1,1,0.1,1.3C323.5,393.2,323.5,393.3,323.5,393.3z"/>
				</g>
			</g>
			<g>
				<path class="st8" d="M321.2,369c0,0-0.1,0.1-0.3,0.4c-0.2,0.3-0.5,0.6-0.9,1c-0.8,0.9-1.9,2.1-3.2,3.6c-2.7,3.1-6.5,7.3-10.7,12
					l-0.1,0.1l-0.1-0.1c-0.3-0.2-0.6-0.4-1-0.6c-5.5-3.5-10.5-6.7-14.1-9.1c-1.8-1.2-3.2-2.1-4.3-2.8c-0.5-0.3-0.9-0.6-1.2-0.8
					c-0.3-0.2-0.4-0.3-0.4-0.3c0,0,0.2,0.1,0.4,0.2c0.3,0.2,0.7,0.4,1.2,0.7c1.1,0.7,2.5,1.6,4.3,2.7c3.7,2.3,8.7,5.5,14.2,9
					c0.3,0.2,0.7,0.4,1,0.6l-0.2,0c4.2-4.7,8-8.8,10.8-11.9c1.4-1.5,2.5-2.7,3.3-3.5c0.4-0.4,0.7-0.7,0.9-1
					C321,369.1,321.2,369,321.2,369z"/>
			</g>
		</g>
		<g>
			<polygon class="st6" points="282.1,433.3 274.5,425.2 277,422.9 282.2,428.5 293.2,417.8 295.5,420.1 			"/>
		</g>
		<g>
			<g>
				<path class="st7" d="M466.7,412.1c0,0,0.1,0,0.4,0c0.1,0,0.3,0,0.5,0c0.2,0,0.4,0.1,0.6,0.1c0.9,0.2,2.3,0.5,3.8,1.7
					c1.4,1.1,2.9,3,3.2,5.7c0.1,0.7,0.1,1.3,0.1,2c0,0.7,0,1.4,0,2.1c0,1.5,0,3,0,4.7c0,1.6,0,3.4,0,5.1c0,0.9,0,1.8,0,2.7
					c0,0.9,0,1.9-0.3,2.9c-0.5,1.9-1.7,3.7-3.5,4.9c-0.9,0.6-1.9,1-2.9,1.3c-1.1,0.2-2.2,0.2-3.3,0.2c-8.8,0-18.5,0-28.9,0l0.1,0
					c-2.1,2.1-4.3,4.3-6.5,6.5l-0.3,0.3v-0.4c0-0.9,0-1.9,0-2.9c0-1.2,0-2.4,0-3.6l0.2,0.2c-0.7,0-1.4,0-2.1-0.1
					c-0.7-0.1-1.4-0.3-2.1-0.5c-1.3-0.5-2.5-1.4-3.4-2.5c-0.9-1.1-1.5-2.4-1.8-3.7c-0.1-0.7-0.2-1.4-0.2-2.1c0-0.7,0-1.3,0-2
					c0-2.7,0-5.3,0-7.9c0-1.3,0-2.6,0-3.8c0-1.3-0.1-2.5,0.1-3.7c0.2-1.2,0.7-2.4,1.3-3.4c0.7-1,1.6-1.8,2.6-2.5
					c1-0.6,2.1-1,3.2-1.2c1.1-0.2,2.2-0.1,3.3-0.1c4.3,0,8.4,0,12.1,0c7.4,0,13.3,0,17.4,0.1c2,0,3.6,0,4.7,0c0.5,0,0.9,0,1.2,0
					C466.5,412.1,466.7,412.1,466.7,412.1s-0.1,0-0.4,0c-0.3,0-0.7,0-1.2,0c-1.1,0-2.7,0-4.7,0c-4.1,0-10.1,0-17.4,0.1
					c-3.7,0-7.7,0-12.1,0c-1.1,0-2.2-0.1-3.3,0.1c-1.1,0.2-2.2,0.6-3.1,1.2c-1,0.6-1.8,1.4-2.5,2.4c-0.6,1-1.1,2.1-1.3,3.3
					c-0.2,1.2-0.1,2.4-0.1,3.7c0,1.3,0,2.5,0,3.8c0,2.6,0,5.2,0,7.9c0,1.3-0.1,2.7,0.2,4c0.3,1.3,0.9,2.5,1.7,3.6
					c0.9,1,2,1.9,3.3,2.4c0.6,0.3,1.3,0.4,2,0.5c0.7,0.1,1.4,0.1,2.1,0.1l0.2,0v0.2c0,1.1,0,2.3,0,3.6c0,1,0,2,0,2.9l-0.3-0.1
					c2.2-2.2,4.4-4.4,6.5-6.5l0,0l0.1,0c10.4,0,20.1,0,28.9,0c1.1,0,2.2,0,3.2-0.2c1-0.2,2-0.6,2.8-1.2c1.7-1.1,2.9-2.9,3.4-4.7
					c0.3-0.9,0.3-1.9,0.3-2.8c0-0.9,0-1.8,0-2.7c0-1.8,0-3.5,0-5.1c0-1.6,0-3.2,0-4.7c0-0.7,0-1.4,0-2.1c0-0.7,0-1.4,0-2
					c-0.3-2.6-1.7-4.5-3.1-5.6c-1.4-1.1-2.8-1.5-3.7-1.7c-0.2,0-0.4-0.1-0.6-0.1c-0.2,0-0.3,0-0.4,0
					C466.8,412.1,466.7,412.1,466.7,412.1z"/>
			</g>
			<g>
				<g>
					<path class="st7" d="M441,429.8c0,0,0-0.2-0.1-0.4c-0.1-0.3-0.3-0.7-0.7-0.9c-0.4-0.3-1-0.4-1.6-0.2c-0.6,0.2-1.1,0.9-1.1,1.6
						c0,0.7,0.5,1.4,1.1,1.6c0.6,0.2,1.2,0.1,1.6-0.2c0.4-0.3,0.6-0.7,0.7-0.9C441,429.9,441,429.8,441,429.8c0,0,0.1,0.2,0,0.5
						c-0.1,0.3-0.2,0.7-0.7,1.1c-0.4,0.4-1.2,0.6-1.9,0.3c-0.7-0.2-1.4-1-1.3-1.9c0-0.9,0.6-1.7,1.3-1.9c0.7-0.3,1.5,0,1.9,0.3
						c0.4,0.4,0.6,0.8,0.7,1.1C441.1,429.6,441,429.8,441,429.8z"/>
				</g>
				<g>
					<path class="st7" d="M449.6,429.7c0,0,0-0.2-0.1-0.4c-0.1-0.3-0.3-0.7-0.7-0.9c-0.4-0.3-1-0.4-1.6-0.2
						c-0.6,0.2-1.1,0.9-1.1,1.6c0,0.7,0.5,1.4,1.1,1.6c0.6,0.2,1.2,0.1,1.6-0.2c0.4-0.3,0.6-0.7,0.7-0.9
						C449.6,429.9,449.6,429.7,449.6,429.7c0,0,0.1,0.2,0,0.5c-0.1,0.3-0.2,0.7-0.7,1.1c-0.4,0.4-1.2,0.6-1.9,0.3
						c-0.7-0.2-1.4-1-1.3-1.9c0-0.9,0.6-1.7,1.3-1.9c0.7-0.3,1.5,0,1.9,0.3c0.4,0.4,0.6,0.8,0.7,1.1
						C449.6,429.5,449.6,429.7,449.6,429.7z"/>
				</g>
				<g>
					<path class="st7" d="M458.2,429.7c0,0,0-0.2-0.1-0.4c-0.1-0.3-0.3-0.7-0.7-0.9c-0.4-0.3-1-0.4-1.6-0.2
						c-0.6,0.2-1.1,0.9-1.1,1.6c0,0.7,0.5,1.4,1.1,1.6c0.6,0.2,1.2,0.1,1.6-0.2c0.4-0.3,0.6-0.7,0.7-0.9
						C458.1,429.9,458.1,429.7,458.2,429.7c0,0,0.1,0.2,0,0.5c-0.1,0.3-0.2,0.7-0.7,1.1c-0.4,0.4-1.2,0.6-1.9,0.3
						c-0.7-0.2-1.4-1-1.3-1.9c0-0.9,0.6-1.7,1.3-1.9c0.7-0.3,1.5,0,1.9,0.3c0.4,0.4,0.6,0.8,0.7,1.1
						C458.2,429.5,458.2,429.7,458.2,429.7z"/>
				</g>
			</g>
		</g>
		<g>
			<path class="st7" d="M198.3,418c0-5.6-5.8-9.1-11.8-6.3c-1.3,0.6-2.5,1.7-3.1,3c-1.5,2.9-0.8,6.2,0.5,9l4.6,11.7
				c0.7,1.7,3.1,1.7,3.7,0l4.5-11.8C198.4,420,198.3,418,198.3,418z M192.7,422.8c-4,2.3-8.1-2-5.9-6.2c0.3-0.6,0.7-1,1.3-1.3
				c4-2.3,8.1,2,5.9,6.2C193.7,422.1,193.3,422.5,192.7,422.8z"/>
			<g>
				<path class="st7" d="M218.9,437.2C218.9,437.2,218.9,437.2,218.9,437.2L218.9,437.2c0,0,0,0.1,0.1,0.2c0.1,0.1,0.1,0.4,0.2,0.6
					c0.2,0.6,0.5,1.4,0.8,2.4c0.7,2.2,1.7,5.3,3.1,9.4l0,0.1l-0.1,0c-3.6-0.7-8-1.5-13-2.4l-0.1,0v-0.1v0l0.2,0.1
					c-3.9,3-9.1,5.4-15.1,6.2c-1.5,0.2-3,0.3-4.6,0.3c-1.6-0.1-3.2-0.1-4.8-0.4c-1.6-0.2-3.2-0.7-4.9-1.1c-0.8-0.3-1.6-0.6-2.4-0.9
					c-0.4-0.1-0.8-0.3-1.2-0.5c-0.4-0.2-0.8-0.4-1.2-0.6c-3.1-1.6-6.1-3.7-8.7-6.3c-2.6-2.6-4.8-5.8-6.4-9.3c-3.2-7-4-15.6-1.4-23.5
					c2.3-7.2,7.1-13.3,13-17.3c5.9-3.9,12.9-5.8,19.4-5.4c6.5,0.2,12.6,2.5,17.3,5.8c4.7,3.4,8.3,7.6,10.5,12
					c2.2,4.4,3.2,8.8,3.5,12.7c0.3,3.9-0.2,7.3-0.9,10c-0.7,2.7-1.5,4.6-2.1,6c-0.3,0.7-0.6,1.1-0.8,1.5
					C219,437,218.9,437.1,218.9,437.2c0-0.1,0.1-0.2,0.2-0.5c0.2-0.3,0.4-0.8,0.7-1.5c0.6-1.3,1.4-3.3,2.1-6c0.6-2.7,1.2-6,0.8-9.9
					c-0.3-3.9-1.3-8.3-3.5-12.6c-2.2-4.4-5.7-8.6-10.4-11.9c-4.7-3.2-10.7-5.5-17.2-5.7c-6.5-0.3-13.3,1.5-19.2,5.4
					c-5.8,3.9-10.6,10-12.8,17.1c-2.5,7.8-1.8,16.3,1.4,23.3c1.6,3.5,3.7,6.6,6.3,9.2c2.6,2.6,5.5,4.7,8.6,6.3
					c0.4,0.2,0.8,0.4,1.2,0.6c0.4,0.2,0.8,0.4,1.2,0.5c0.8,0.3,1.6,0.6,2.4,0.9c1.6,0.4,3.2,0.9,4.8,1.1c1.6,0.3,3.2,0.3,4.8,0.4
					c1.6,0,3.1-0.1,4.6-0.3c6-0.8,11.1-3.2,15-6.1l0.2-0.1v0.2v0l-0.1-0.1c5,0.9,9.4,1.8,13,2.4l-0.1,0.1c-1.3-4.1-2.3-7.2-3-9.4
					c-0.3-1.1-0.6-1.9-0.8-2.5c-0.1-0.3-0.1-0.5-0.2-0.6C218.9,437.3,218.9,437.2,218.9,437.2L218.9,437.2
					C218.9,437.2,218.9,437.2,218.9,437.2z"/>
			</g>
		</g>
		<g>
			<g>
				<g>
					<path class="st7" d="M413.1,363.2c0,0-0.1-0.4-0.1-1.1c0-0.4-0.1-0.8-0.2-1.4c-0.1-0.5-0.2-1.2-0.4-1.9c-0.3-1.4-0.9-3-1.9-4.8
						c-1-1.7-2.5-3.6-4.4-5.1c-2-1.5-4.5-2.9-7.4-3.4c-2.9-0.6-6.2-0.5-9.3,0.6c-1.6,0.5-3.1,1.3-4.5,2.3c-0.7,0.5-1.4,1.1-2,1.7
						c-0.6,0.6-1.2,1.3-1.8,2c-2.2,2.8-3.5,6.5-3.7,10.3c-0.1,3.8,1.1,7.5,3.2,10.5c0.5,0.8,1.1,1.4,1.7,2.1c0.6,0.6,1.2,1.2,2,1.7
						c1.4,1.1,2.8,1.9,4.4,2.5c3.1,1.3,6.3,1.4,9.2,1c2.9-0.4,5.5-1.6,7.5-3.1c2.1-1.5,3.6-3.2,4.7-4.9c1.1-1.7,1.8-3.3,2.2-4.7
						c0.2-0.7,0.3-1.3,0.5-1.8c0.1-0.5,0.2-1,0.2-1.4C413,363.5,413.1,363.2,413.1,363.2c0,0,0,0.4,0,1.2c0,0.4,0,0.9-0.1,1.4
						c-0.1,0.6-0.2,1.2-0.4,1.9c-0.3,1.4-1,3.1-2.1,4.9c-1.1,1.8-2.6,3.6-4.7,5.2c-2.1,1.5-4.8,2.8-7.8,3.3c-3,0.5-6.5,0.3-9.7-1
						c-1.6-0.6-3.2-1.5-4.6-2.6c-0.7-0.5-1.4-1.2-2.1-1.8c-0.6-0.7-1.3-1.4-1.8-2.2c-2.2-3.1-3.4-7-3.4-11.1c0.1-4,1.5-7.9,3.9-10.9
						c0.6-0.8,1.2-1.4,1.9-2.1c0.7-0.6,1.4-1.2,2.2-1.7c1.5-1.1,3.1-1.9,4.8-2.4c3.3-1.1,6.7-1.1,9.7-0.5c3,0.6,5.6,2.1,7.7,3.7
						c2,1.7,3.5,3.6,4.5,5.4c1,1.8,1.6,3.5,1.8,5c0.2,0.7,0.2,1.4,0.3,1.9c0.1,0.6,0.1,1,0.1,1.4
						C413.1,362.8,413.1,363.2,413.1,363.2z"/>
				</g>
				<g>
					<path class="st7" d="M409.5,351.9c0,0.1-0.3,0.3-0.9,0.8c-0.3,0.2-0.7,0.5-1.2,0.8c-0.2,0.2-0.5,0.3-0.7,0.5
						c-0.3,0.1-0.6,0.3-0.9,0.5c-2.4,1.4-6.3,2.8-10.6,2.7c-0.5,0-1.1,0-1.6-0.1c-0.5-0.1-1-0.2-1.5-0.2c-0.3,0-0.5-0.1-0.8-0.1
						c-0.2-0.1-0.5-0.1-0.7-0.2c-0.5-0.1-0.9-0.2-1.4-0.4c-1.8-0.6-3.3-1.3-4.5-2.1c-2.4-1.5-3.6-2.8-3.5-2.9c0.1-0.1,1.4,1,3.9,2.3
						c1.2,0.6,2.7,1.3,4.4,1.8c0.4,0.1,0.9,0.2,1.3,0.3c0.2,0.1,0.5,0.1,0.7,0.2c0.2,0,0.5,0.1,0.7,0.1c0.5,0.1,1,0.1,1.5,0.2
						c0.5,0,1,0,1.5,0.1c4.2,0.1,7.9-1.1,10.3-2.3c0.3-0.1,0.6-0.3,0.9-0.4c0.3-0.1,0.5-0.3,0.8-0.4c0.5-0.3,0.9-0.5,1.2-0.7
						C409,352,409.4,351.8,409.5,351.9z"/>
				</g>
				<g>
					<path class="st7" d="M380.5,373.8c0-0.1,0.3-0.3,0.9-0.8c0.3-0.2,0.7-0.5,1.2-0.8c0.2-0.2,0.5-0.3,0.7-0.5
						c0.3-0.1,0.6-0.3,0.9-0.5c2.4-1.4,6.3-2.8,10.6-2.7c0.5,0,1.1,0,1.6,0.1c0.5,0.1,1,0.2,1.5,0.2c0.3,0,0.5,0.1,0.8,0.1
						c0.2,0.1,0.5,0.1,0.7,0.2c0.5,0.1,0.9,0.2,1.4,0.4c1.8,0.6,3.3,1.3,4.5,2.1c2.4,1.5,3.6,2.8,3.5,2.9c-0.1,0.1-1.4-1-3.9-2.3
						c-1.2-0.6-2.7-1.3-4.4-1.8c-0.4-0.1-0.9-0.2-1.3-0.3c-0.2-0.1-0.5-0.1-0.7-0.2c-0.2,0-0.5-0.1-0.7-0.1c-0.5-0.1-1-0.1-1.5-0.2
						c-0.5,0-1,0-1.5-0.1c-4.2-0.1-7.9,1.1-10.3,2.3c-0.3,0.1-0.6,0.3-0.9,0.4c-0.3,0.1-0.5,0.3-0.8,0.4c-0.5,0.3-0.9,0.5-1.2,0.7
						C381,373.7,380.6,373.9,380.5,373.8z"/>
				</g>
				<g>
					<path class="st7" d="M413.1,363.6c0,0.3-8.1,0.3-18.1,0.1c-10-0.2-18.1-0.7-18.1-0.9c0-0.3,8.1-0.3,18.1-0.1
						C405,362.9,413.1,363.3,413.1,363.6z"/>
				</g>
				<g>
					<path class="st7" d="M394.2,380.8c-0.3,0-0.3-8.1-0.1-18.1c0.2-10,0.7-18.1,0.9-18.1c0.3,0,0.3,8.1,0.1,18.1
						C394.9,372.7,394.4,380.8,394.2,380.8z"/>
				</g>
				<g>
					<path class="st7" d="M394.2,380.8c-0.1,0.1-2.1-1.2-4.4-4.3c-1.1-1.5-2.3-3.5-3.2-5.9c-0.9-2.4-1.5-5.2-1.4-8.1
						c0.1-2.9,0.8-5.7,1.8-8c1-2.3,2.3-4.2,3.5-5.7c2.4-2.9,4.4-4.2,4.5-4.1c0.1,0.1-1.7,1.6-4,4.6c-1.1,1.5-2.3,3.4-3.2,5.6
						c-0.9,2.2-1.6,4.9-1.7,7.7c-0.1,2.8,0.4,5.5,1.3,7.8c0.8,2.3,1.9,4.2,2.9,5.8C392.5,379.1,394.3,380.6,394.2,380.8z"/>
				</g>
				<g>
					<path class="st7" d="M395.4,344.6c0.1-0.1,2.1,1.2,4.4,4.3c1.1,1.5,2.3,3.5,3.2,5.9c0.9,2.4,1.5,5.2,1.4,8.1
						c-0.1,2.9-0.8,5.7-1.8,8c-1,2.3-2.3,4.2-3.5,5.7c-2.4,2.9-4.4,4.2-4.5,4.1c-0.1-0.1,1.7-1.6,4-4.6c1.1-1.5,2.3-3.4,3.2-5.6
						c0.9-2.2,1.6-4.9,1.7-7.7c0.1-2.8-0.4-5.5-1.3-7.8c-0.8-2.3-1.9-4.2-2.9-5.8C397.1,346.3,395.3,344.7,395.4,344.6z"/>
				</g>
			</g>
			<g>
				<g>
					<path class="st7" d="M376.9,389.7C376.9,389.7,376.9,389.7,376.9,389.7L376.9,389.7c0,0-0.1,0-0.2,0.1c-0.2,0-0.4,0.1-0.6,0.2
						c-0.6,0.1-1.4,0.3-2.5,0.6c-2.2,0.5-5.5,1.3-9.6,2.2l-0.1,0l0-0.1c1-3.5,2.2-7.8,3.5-12.8l0-0.1l0.1,0l0,0l-0.1,0.2
						c-2.6-4.1-4.6-9.5-4.9-15.6c-0.1-1.5,0-3.1,0.1-4.6c0.2-1.6,0.4-3.2,0.8-4.7c0.3-1.6,0.9-3.2,1.5-4.8c0.4-0.8,0.7-1.5,1.1-2.3
						c0.2-0.4,0.4-0.8,0.6-1.1c0.2-0.4,0.4-0.7,0.7-1.1c1.8-3,4.2-5.7,7.1-8.1c2.8-2.4,6.2-4.3,9.9-5.5c7.3-2.6,15.9-2.6,23.5,0.7
						c7,2.9,12.6,8.3,16,14.5c3.4,6.3,4.6,13.3,3.7,19.8c-0.8,6.5-3.6,12.3-7.3,16.8c-3.8,4.4-8.3,7.6-12.9,9.4
						c-4.6,1.8-9.1,2.4-13,2.3c-3.9,0-7.2-0.9-9.8-1.8c-2.6-0.9-4.5-1.9-5.7-2.7c-0.6-0.4-1.1-0.7-1.4-0.9
						C377.1,389.8,377,389.7,376.9,389.7c0.1,0,0.2,0.1,0.5,0.3c0.3,0.2,0.8,0.5,1.4,0.9c1.3,0.7,3.1,1.7,5.7,2.6
						c2.6,0.9,5.9,1.7,9.8,1.7c3.9,0.1,8.4-0.5,12.9-2.3c4.6-1.8,9.1-5,12.8-9.3c3.6-4.4,6.4-10.2,7.2-16.6
						c0.9-6.4-0.3-13.4-3.7-19.6c-3.4-6.1-9-11.4-15.9-14.3c-7.6-3.2-16.1-3.2-23.3-0.7c-3.6,1.3-6.9,3.1-9.8,5.5
						c-2.8,2.3-5.2,5.1-7,8c-0.2,0.4-0.4,0.7-0.7,1.1c-0.2,0.4-0.4,0.7-0.6,1.1c-0.4,0.8-0.7,1.5-1.1,2.3c-0.6,1.6-1.2,3.1-1.5,4.7
						c-0.5,1.6-0.6,3.2-0.8,4.7c-0.2,1.6-0.2,3.1-0.1,4.6c0.3,6,2.2,11.3,4.8,15.5l0.1,0.2l-0.2,0l0,0l0.1-0.1
						c-1.4,4.9-2.6,9.2-3.6,12.8l-0.1-0.1c4.2-0.9,7.4-1.6,9.6-2.1c1.1-0.2,1.9-0.4,2.5-0.5c0.3-0.1,0.5-0.1,0.6-0.1
						C376.8,389.7,376.9,389.7,376.9,389.7L376.9,389.7C376.9,389.7,376.9,389.7,376.9,389.7z"/>
				</g>
			</g>
		</g>
		<g>
			<path class="st9" d="M407.6,454.6c-3.3,0.8-5.4,4.1-6.1,7.4c-0.7,3.3-0.4,6.8-0.7,10.2c-0.3,3.4-1.5,7-4.3,8.8
				c0.9,0.3,1.9,0.5,2.8,0.8c-0.5,1.8-1.8,3.3-3.3,4.3c1.1,0.9,2.5,1.3,3.9,1.3c-1.7,0.4-2.1,2.8-1.2,4.3c0.9,1.5,2.7,2.1,4.3,2.6
				c2,0.5,4.1,0.8,6,0.2c2.7-0.8,4.8-3.2,5.8-5.9c1.1-2.7,1.2-5.6,1.3-8.4c0.2-7.2-0.2-14.4-2-21.4c-0.4-1.7-1.1-3.5-2.5-4.4
				c-1.4-1-3.9-0.6-4.3,1.1"/>
			<path class="st8" d="M482.4,558.1c-0.8-3-5.4-19.8-9.5-30.9c-4.5-12.2-13.9-14.7-13.9-14.7c-21.1-7.2-40-7.2-60.3-0.2
				c-0.6,0.2-1.3,0.4-1.9,0.7c0,0,0,0-0.1,0l0,0c-15,5.9-16.6,21.7-16.6,21.7l-6.3,38.5c-0.1,0.3-0.1,0.6-0.2,0.9l-0.1,0.4l0,0
				c-0.2,3.6,1.8,7.2,5.2,8.7c8.8,4.1,17.2,3.1,24.4,0.1l-5.3,7.6h32.7h29.8l-4.2-10.1l1.4-6.1l9.7,11.7c1.2,1.4,2.7,2.4,4.5,2.9
				c11.2,1.3,13-15.3,10.9-25l0,0"/>
			<path class="st10" d="M442.8,508.3c0,0-10.1,50.8-13.6,50.4c-3.6-0.4-20.2-49.4-20.2-49.4S430.3,503.6,442.8,508.3z"/>
			<g>
				<g>
					<g>
						<g>
							<g>
								<path class="st10" d="M414.2,512.1c-0.1-5.8-0.2-12-0.2-12s-7.5-1.2-9.2-11c-1.5-9.4-0.1-31-0.1-31l0,0
									c10.8-4.5,23.7-1.6,31.4,7l0,0l-0.3,47.5c0,5.5-4.8,9.9-10.7,9.8h0C419.1,522.2,414.2,517.6,414.2,512.1z"/>
							</g>
							<g>
								<g>
									<path class="st11" d="M407.2,474.4c0,0.7,0.5,1.2,1.2,1.3c0.7,0,1.3-0.5,1.3-1.1c0-0.7-0.5-1.2-1.2-1.3
										C407.8,473.3,407.2,473.8,407.2,474.4z"/>
								</g>
								<g>
									<g>
										<path class="st11" d="M405.5,473.6c0.2,0.2,1.1-0.5,2.5-0.6c1.4,0,2.4,0.7,2.5,0.5c0.1-0.1-0.1-0.4-0.5-0.7
											c-0.4-0.3-1.2-0.6-2-0.6c-0.8,0-1.6,0.3-2,0.6C405.6,473.2,405.5,473.5,405.5,473.6z"/>
									</g>
								</g>
							</g>
							<g>
								<g>
									<path class="st11" d="M420.9,475.1c0,0.7,0.5,1.2,1.2,1.3c0.7,0,1.3-0.5,1.3-1.1c0-0.7-0.5-1.2-1.2-1.3
										C421.5,473.9,420.9,474.4,420.9,475.1z"/>
								</g>
								<g>
									<g>
										<path class="st11" d="M419.7,474c0.2,0.2,1.1-0.5,2.5-0.6c1.4,0,2.4,0.7,2.5,0.5c0.1-0.1-0.1-0.4-0.5-0.7
											c-0.4-0.3-1.2-0.6-2-0.6c-0.8,0-1.6,0.3-2,0.6C419.7,473.6,419.6,473.9,419.7,474z"/>
									</g>
								</g>
							</g>
							<g>
								<g>
									<path class="st11" d="M414.8,484c0-0.1-0.8-0.2-2.2-0.4c-0.3,0-0.7-0.1-0.7-0.3c-0.1-0.2,0.1-0.6,0.2-1
										c0.3-0.8,0.7-1.7,1-2.6c1.4-3.8,2.4-6.9,2.3-6.9c-0.2-0.1-1.4,2.9-2.8,6.7c-0.3,0.9-0.7,1.8-1,2.7
										c-0.1,0.4-0.4,0.8-0.2,1.4c0.1,0.3,0.3,0.4,0.6,0.5c0.2,0.1,0.4,0.1,0.6,0.1C414,484.1,414.8,484.1,414.8,484z"/>
								</g>
							</g>
							<g>
								<path class="st12" d="M414,500.1c0,0,6.6,0.4,13.1-3.6c0,0-3.1,6.8-13,5.9L414,500.1z"/>
							</g>
							<g>
								<path class="st12" d="M415.4,487.3c0.5-0.6,1.3-1,2.2-0.9c0.6,0.1,1.2,0.3,1.5,0.8c0.4,0.5,0.4,1.2,0.1,1.6
									c-0.4,0.5-1.1,0.6-1.8,0.5c-0.6-0.2-1.2-0.6-1.7-1c-0.1-0.1-0.3-0.2-0.4-0.4C415.3,487.7,415.2,487.5,415.4,487.3"/>
							</g>
							<g>
								<g>
									<path class="st11" d="M418.8,485c-0.2,0-0.2,1.5-1.5,2.5c-1.3,1.1-2.8,0.9-2.8,1.1c0,0.1,0.4,0.3,1,0.3
										c0.6,0,1.6-0.2,2.4-0.8c0.8-0.6,1.1-1.5,1.1-2.1C419.1,485.3,418.9,484.9,418.8,485z"/>
								</g>
							</g>
						</g>
						<g>
							<path class="st9" d="M430.8,457.2c-3.5,5.2-12.9,10.6-19.7,12c0.8-1.1,4.9-3.7,5.7-4.8c-3,2.4-7.4,5.5-11.5,5.8
								c-0.5,0-1,0-1.4-0.2c-0.5-0.3-0.7-1-0.7-1.5c-0.3-2.4-0.2-6.5,0.1-8.9c0.3-2.4,1.4-4.8,3.4-6.4c2.6-2.1,6.3-2.6,9.9-2.8
								c3-0.1,6,0,8.8,1c2.7,1,5.1,3.1,5.5,5.6"/>
						</g>
						<g>
							<path class="st9" d="M442.4,480.9c0.5-2.6,0.8-5,0.9-6.6c0.2-5.1,1.7-23.4-15.7-21.6l1,4.9c0,0-3.3,11.4,4.2,19.1
								c0,0-2.1,16.1,3.1,21.2C435.9,498,441.5,486.4,442.4,480.9"/>
						</g>
						<g>
							<path class="st10" d="M432.6,475.9c1-0.2,2.2-0.2,3.2,0.2c1,0.4,1.9,1.1,2.3,2.1c0.4,1,0.4,2.1,0,3.1c-0.4,1-1,1.9-1.8,2.7
								c-0.5,0.5-1.2,1-1.9,1.3c-0.7,0.2-1.6,0.2-2.2-0.3"/>
						</g>
						<g>
							<g>
								<path class="st12" d="M433.2,482.3c-0.1,0,0.3,0.7,1.3,0.4c0.5-0.1,0.9-0.5,1.2-1c0.3-0.5,0.4-1.1,0.5-1.7
									c0.1-0.7-0.1-1.4-0.5-1.8c-0.3-0.5-0.9-0.8-1.4-0.8c-1,0-1.3,0.7-1.2,0.7c0.1,0.1,0.5-0.3,1.1-0.1c0.6,0.1,1.2,1,1.1,2
									c-0.1,1.1-0.5,2.1-1.1,2.3C433.7,482.5,433.3,482.2,433.2,482.3z"/>
							</g>
						</g>
					</g>
				</g>
			</g>
			<g>
				<path class="st11" d="M398.2,559.4c-0.1,0-0.2-4-0.2-8.9c0-4.9,0.1-8.9,0.2-8.9c0.1,0,0.2,4,0.2,8.9
					C398.3,555.4,398.3,559.4,398.2,559.4z"/>
			</g>
			<g>
				<g>
					<path class="st10" d="M423.6,541.2c0,0-8.8,0.1-9.3,2c-0.9,3.2,0.7,20.9,0.7,20.9l8.1,2.7c0,0,3.9-0.9,2.1-8.4
						s-5.3-13.5-5.3-13.5s10.7,0.3,10.4-2.1C430,540.4,423.6,541.2,423.6,541.2z"/>
					<path class="st10" d="M420.1,546.4c0.5-0.1,11.2-1,10.6,0.7c-0.7,1.7-10.6,2.1-10.6,2.1V546.4z"/>
				</g>
				<polygon class="st11" points="454.6,520.4 453.3,553.9 448.4,566.8 418.3,567.4 417.1,525.9 				"/>
			</g>
			<g>
				<path class="st11" d="M413.6,553c0,0-0.1,0.1-0.4,0.2c-0.3,0.1-0.6,0.3-1.1,0.5c-1,0.4-2.3,1-4,1.7c-3.4,1.4-8.1,3.4-13.3,5.5
					c-2.6,1.1-5.1,2.1-7.3,3c-2.3,0.9-4.3,1.7-5.9,2.7c-1.6,0.9-2.7,2-3.3,2.8c-0.6,0.8-0.8,1.3-0.9,1.3c0,0,0-0.1,0.2-0.4
					c0.1-0.2,0.3-0.6,0.6-1c0.6-0.9,1.7-1.9,3.3-2.9c1.6-1,3.6-1.9,5.9-2.8c2.3-0.9,4.7-2,7.3-3c5.2-2.1,9.9-4,13.3-5.4
					c1.7-0.7,3.1-1.2,4.1-1.6c0.5-0.2,0.8-0.3,1.1-0.4C413.4,553,413.6,553,413.6,553z"/>
			</g>
			<g>
				<path class="st11" d="M423.5,566.1c0,0-0.2,0.3-0.7,0.8c-0.4,0.5-1.1,1.2-1.9,2.1c-1.7,1.7-4.1,3.9-6.9,6.3
					c-2.8,2.3-5.4,4.4-7.4,5.8c-1,0.7-1.8,1.3-2.3,1.6c-0.6,0.4-0.9,0.6-0.9,0.6c0,0,0.3-0.3,0.8-0.7c0.6-0.4,1.3-1,2.2-1.7
					c1.9-1.5,4.5-3.5,7.3-5.8c2.8-2.3,5.3-4.5,7-6.2c0.9-0.8,1.5-1.5,2-2C423.2,566.4,423.5,566.1,423.5,566.1z"/>
			</g>
			<g>
				<path class="st11" d="M468.9,587.6c-0.1,0.1-4.5-5-9.9-11.3c-5.4-6.3-9.7-11.5-9.6-11.5c0.1-0.1,4.5,5,9.9,11.3
					C464.6,582.4,468.9,587.6,468.9,587.6z"/>
			</g>
			<g>
				<path class="st11" d="M477.4,563.2c0,0-0.4-0.1-1-0.3c-0.6-0.2-1.5-0.6-2.6-1.1c-2.2-1-5.1-2.4-8.3-4.3
					c-3.2-1.8-5.9-3.7-7.8-5.1c-1-0.7-1.7-1.3-2.3-1.7c-0.5-0.4-0.8-0.7-0.8-0.7c0,0,0.3,0.2,0.9,0.6c0.6,0.4,1.4,1,2.3,1.6
					c2,1.3,4.7,3.1,7.9,5c3.1,1.8,6.1,3.3,8.2,4.3c1,0.5,1.9,0.9,2.6,1.2C477.1,563.1,477.4,563.2,477.4,563.2z"/>
			</g>
			<g>
				<path class="st11" d="M461.8,555.9c-0.1,0-0.6-3.6-1.2-8c-0.6-4.4-0.9-8-0.8-8c0.1,0,0.6,3.6,1.2,8
					C461.5,552.3,461.9,555.9,461.8,555.9z"/>
			</g>
			<g>
				<path class="st11" d="M436.3,482.2c0,0-0.1,0.2-0.3,0.4c-0.2,0.3-0.5,0.7-0.9,1.2c-0.8,1-1.9,2.4-3.1,4l0-0.2
					c1.5,1.2,3.2,2.5,5.1,4c0.2,0.1,0.3,0.2,0.5,0.4l-0.2,0c1.6-2,3.1-3.9,4.4-5.5l0,0.2c-1.3-1.1-2.5-2-3.3-2.7
					c-0.4-0.3-0.7-0.6-0.9-0.8c-0.2-0.2-0.3-0.3-0.3-0.3c0,0,0.1,0.1,0.4,0.2c0.3,0.2,0.6,0.4,1,0.7c0.9,0.7,2,1.5,3.4,2.6l0.1,0.1
					l-0.1,0.1c-1.3,1.6-2.7,3.5-4.4,5.5l-0.1,0.1l-0.1-0.1c-0.2-0.1-0.3-0.2-0.5-0.4c-1.8-1.5-3.6-2.8-5.1-4l-0.1-0.1l0.1-0.1
					c1.3-1.6,2.4-3,3.2-4c0.4-0.4,0.7-0.8,0.9-1.1C436.2,482.3,436.3,482.2,436.3,482.2z"/>
			</g>
			<g>
				<g>
					<path class="st10" d="M449.2,564.3c-4.9-0.1-11.5-1.1-14.5-1.6c-5.7-0.9-5.6-1.4-5.4-2.1c0.5-1.7,10.1,1.2,8.4-0.6
						c-1.7-1.8-12-2.3-11.4-4.1c0.8-2.3,10.8,0.9,11.6,1.2c0.8,0.2,1.2-1,0.4-1.2c-1.1-0.2-12.9-2.8-12.1-5.1
						c0.4-1.3,2.7-0.2,2.7-0.2s10.9,3.3,11.2,2.2c0.3-1.1-6-3.3-8.2-3.8c-2.2-0.6-2.8-1.8-1.8-2.6c0.7-0.5,7.4,1.1,9.6,1.7
						c2.1,0.6,8,2.4,5.8-0.8c0-0.1-0.1-0.1-0.1-0.2c-2.3-3.1-3-6.3-2.6-7.4c0.4-1,1.9-1,2.4,0c0.1,0.2,0.2,0.3,0.2,0.5
						c0,0.1,0.1,0.2,0.1,0.3c0.4,1,1.3,2.4,2,3.4c0.7,1,1.5,1.8,2.5,2.5c1.1,0.8,3.9,3.8,4.8,4.3"/>
				</g>
			</g>
		</g>
		<g>
			<g>
				<g>
					<g>
						<g>
							<g>
								<g>
									<path class="st13" d="M225.9,526.8L225.9,526.8c-6.2-0.1-11.2-5.1-11.4-11.2c-0.2-5.2-0.3-10.1-0.3-10.1
										s-9.5-0.9-10.2-10.2c-0.7-9.4-0.4-31-0.4-31l0,0c10.6-5.3,23.2-4.5,33,2.1l1.5,1l-0.4,48
										C237.7,521.8,232.4,526.9,225.9,526.8z"/>
								</g>
								<g>
									<g>
										<path class="st11" d="M214,489.4c0-0.1-0.8-0.2-2.1-0.3c-0.3,0-0.6-0.1-0.6-0.3c-0.1-0.2,0-0.6,0.2-1
											c0.3-0.9,0.6-1.8,0.9-2.7c1.2-3.8,2-7,1.8-7c-0.2-0.1-1.3,3-2.5,6.8c-0.3,0.9-0.5,1.8-0.8,2.7c-0.1,0.4-0.3,0.9-0.1,1.4
											c0.1,0.3,0.4,0.5,0.6,0.5c0.2,0.1,0.4,0,0.6,0C213.2,489.6,214,489.5,214,489.4z"/>
									</g>
								</g>
								<g>
									<path class="st7" d="M218.3,490.6c-2.6,1.2-3.8,1.6-6.2,2.2c0,0,1.7,2.3,4.3,1.2C219.1,492.8,218.3,490.6,218.3,490.6z"/>
								</g>
								<g>
									<path class="st14" d="M214.2,505.3c0,0,5.9,0.1,12-4.2c0,0-2.5,6.9-11.9,6.7L214.2,505.3z"/>
								</g>
							</g>
						</g>
						<g>
							<g>
								<path class="st13" d="M237.6,478.9c0-0.8,0.6-1.4,1.4-1.4c1.7,0,4.6,0.6,4.9,5.5c0.4,6.9-6.2,5.2-6.3,5
									C237.6,487.8,237.6,481.6,237.6,478.9z"/>
							</g>
							<g>
								<g>
									<path class="st14" d="M239.1,485.2c0,0,0.1,0.1,0.3,0.2c0.2,0.1,0.5,0.1,0.9,0c0.7-0.3,1.3-1.5,1.2-2.7
										c0-0.6-0.2-1.2-0.4-1.7c-0.2-0.5-0.6-0.8-1-0.9c-0.4-0.1-0.6,0.2-0.7,0.4c-0.1,0.2,0,0.3-0.1,0.3c0,0-0.2-0.1-0.1-0.4
										c0-0.1,0.1-0.3,0.2-0.4c0.2-0.1,0.4-0.2,0.7-0.2c0.5,0,1,0.5,1.3,1c0.3,0.5,0.5,1.2,0.5,1.9c0,1.4-0.6,2.7-1.6,3.1
										c-0.5,0.2-0.9,0-1.1-0.1C239.1,485.4,239.1,485.2,239.1,485.2z"/>
								</g>
							</g>
						</g>
					</g>
				</g>
				<g>
					<g>
						<path class="st11" d="M206.6,480.1c0,0.7,0.6,1.2,1.3,1.2c0.7,0,1.3-0.6,1.2-1.2c0-0.7-0.6-1.2-1.3-1.2
							C207.2,478.9,206.6,479.4,206.6,480.1z"/>
					</g>
					<g>
						<g>
							<path class="st11" d="M204.5,478.8c0.2,0.2,1.1-0.6,2.4-0.7c1.4-0.1,2.4,0.5,2.6,0.3c0.1-0.1-0.1-0.4-0.6-0.7
								c-0.5-0.3-1.2-0.5-2.1-0.5c-0.9,0.1-1.5,0.4-1.9,0.8C204.5,478.4,204.4,478.8,204.5,478.8z"/>
						</g>
					</g>
				</g>
				<g>
					<g>
						<path class="st11" d="M220.2,479.9c0,0.7,0.6,1.2,1.3,1.2c0.7,0,1.3-0.6,1.2-1.2c0-0.7-0.6-1.2-1.3-1.2
							C220.7,478.6,220.2,479.2,220.2,479.9z"/>
					</g>
					<g>
						<g>
							<path class="st11" d="M218.3,478.8c0.2,0.2,1.1-0.6,2.4-0.7c1.4-0.1,2.4,0.5,2.6,0.3c0.1-0.1-0.1-0.4-0.6-0.7
								c-0.5-0.3-1.2-0.5-2.1-0.5c-0.9,0.1-1.5,0.4-1.9,0.8C218.4,478.4,218.3,478.8,218.3,478.8z"/>
						</g>
					</g>
				</g>
				<path class="st11" d="M227.4,461c-1.3,2.9-0.6,6.5,1.6,8.8c0.9,1,2.1,1.7,2.9,2.7c1.7,2.2,1.4,5.2,1.6,8
					c0.1,1.3,0.4,2.6,1.4,3.5s2.7,0.9,3.3-0.2c0.2-0.3,0.3-0.7,0.3-1.1c0.6-3.1,1.1-6.1,1.7-9.2c0.4-2.3,0.9-4.6,0.5-6.9
					c-0.5-2.7-2.1-5.1-4.4-6.6c-2.3-1.5-5.2-1.9-7.8-1.2"/>
				<path class="st11" d="M228.8,459.1c-3.2-0.6-5-1.6-7.2-2.6c-2.2-1-4.8-1.5-7.2-0.8c-1.6,0.5-3.1,1.4-4.8,1.4
					c-1.6,0-3.1-1-4.7-1.5c-2.1-0.7-4.5-0.4-6.5,0.7c-1.5,0.8-2.9,2.4-3.1,4.2c-0.1,1.8,1.5,3.8,3.2,3.2c-1.7,0.6-2.4,3.1-1.6,4.8
					c0.9,1.7,2.9,2.5,4.7,2.2c1.8-0.3,3.4-1.5,4.7-2.8c0,2.1,2.1,3.5,4,3.4c1.9-0.1,3.6-1.2,5.2-2.4c1.6-1.2,3.2-2.5,5.1-2.9
					c1.3-0.3,2.7-0.1,4-0.3c1.3-0.2,2.7-0.7,3.4-2c0.6-1.3,3.2-2.7,1.9-2.8"/>
				<g>
					<path class="st11" d="M210,469.2c0,0,0.2,0.2,0.7,0.4c0.5,0.2,1.2,0.3,2.1,0c0.4-0.1,0.9-0.3,1.4-0.6c0.5-0.3,0.9-0.6,1.4-1
						c0.5-0.4,1-0.7,1.7-1.1c0.6-0.3,1.3-0.5,2.1-0.5c1.5,0,2.8,0.4,4,0.3c1.2-0.1,2.2-0.7,2.7-1.5c0.6-0.7,0.7-1.5,0.8-2
						c0.1-0.5,0-0.8,0-0.8c0,0,0,0.1,0.1,0.2c0,0.1,0,0.3,0,0.6c0,0.5-0.2,1.3-0.7,2.1c-0.3,0.4-0.7,0.8-1.1,1.1
						c-0.5,0.3-1.1,0.5-1.7,0.6c-1.3,0.1-2.6-0.3-4-0.2c-1.4,0-2.6,0.8-3.6,1.5c-0.5,0.4-1,0.7-1.5,1c-0.5,0.3-1,0.5-1.4,0.6
						c-0.9,0.2-1.8,0.1-2.2-0.1c-0.2-0.1-0.4-0.2-0.5-0.3C210,469.3,210,469.2,210,469.2z"/>
				</g>
				<g>
					<path class="st11" d="M227.9,455.8c0.1,0-0.1,1,0.2,2.2c0.3,1.2,0.9,2,0.9,2c-0.1,0.1-0.9-0.7-1.2-1.9
						C227.4,456.8,227.8,455.8,227.9,455.8z"/>
				</g>
				<g>
					<path class="st11" d="M231.4,455.7c0.1,0.1-0.8,0.9-1.4,2.1c-0.7,1.3-0.8,2.4-0.9,2.4c-0.1,0-0.1-1.2,0.6-2.6
						C230.3,456.3,231.3,455.6,231.4,455.7z"/>
				</g>
			</g>
			<polygon class="st13" points="275.6,553.7 290,590.7 267.9,590.7 257.7,564.3 			"/>
			<path class="st13" d="M197.6,523.6c0,0-19,19.5-27.2,19.5c-2.7,0-4.8-32.5-4.8-41.9l0,0c0.7-1.7,1.1-2.4,1.8-3.4
				c0.7-0.9,1.4-1.9,2.4-2.6c1.1-0.9,2.7-2,3.7-2.4c1.3-0.5,1.4-2.2,0.2-2.6c-1.2-0.3-4.7,0.8-7.9,3.8c-3.2,3-2.2-3.7-1.9-6.2
				c0.3-2.5,0.9-10.1,0.2-10.8c-1-1-2.3-0.1-2.5,2.4c-0.2,2.5-1.5,9.9-2.8,9.7c-1.3-0.2,0.4-12.7,0.4-12.7s0.8-2.6-0.7-2.9
				c-2.7-0.5-3.5,13-3.6,14.3c0,0.9-1.5,0.7-1.4-0.2c0.1-1,2-12.5-0.7-13c-2.1-0.4-0.8,11.1-2.5,13.3c-1.7,2.2-0.1-8.8-2.1-9.1
				c-0.8-0.1-1.3-0.1-1.4,6.4c0,3.5,1.3,8.7,0.8,15.4l0,0c0.9,19.7-0.1,74.9,21.8,68.4c24.1-7.2,40.5-23,40.5-23L197.6,523.6z"/>
			<g>
				<path class="st11" d="M250.7,541.1c0,0,0.1,0.3,0.2,0.8c0.1,0.5,0.3,1.2,0.4,2.2c0.3,1.8,0.7,4.4,1.1,7.2
					c0.3,2.8,0.5,5.4,0.5,7.2c0,0.9,0,1.7,0,2.2c0,0.5,0,0.8,0,0.8c0,0-0.1-0.3-0.1-0.8c0-0.6-0.1-1.3-0.1-2.2
					c-0.1-1.8-0.3-4.4-0.6-7.2c-0.3-2.8-0.7-5.3-1-7.2c-0.1-0.9-0.2-1.6-0.3-2.2C250.7,541.4,250.7,541.1,250.7,541.1z"/>
			</g>
			<g>
				<g>
					<g>
						<g>
							<g>
								<g>
									<g>
										<path class="st8" d="M194.4,590.7L255,591l-2-12.8c0.9-8.8-0.1-18.3-0.1-18.3l3.1,8.3l25.1-12.5c0,0-9.1-24.3-16.7-32.5
											c-9.6-10.4-27-9.4-27-9.4l-11.7,8l-10.8-7.6c0,0-8.6,0.8-16.7,4.8l-0.6,0.2l0,0.1c-6.4,3.3-15.4,11.4-24.1,19.3l10,9.7
											l11,10.3c0,0,1.9-0.2,1.9-0.1C196.6,559.6,194.4,590.7,194.4,590.7z"/>
									</g>
								</g>
							</g>
						</g>
					</g>
					<path class="st16" d="M251,537.2l8.2,29.4l-3.3,1.7l-3.1-8.3C252.9,559.9,249.9,542.5,251,537.2z"/>
				</g>
				<path class="st8" d="M214.1,514.1v-3.2c0,0,9.5-0.7,11.4,10.5c0,0,3.1-10.5,12.3-11.5l1.3,4.9c0,0-4.4,13.6-5,13.7
					c-0.6,0.1-8.6,2.4-8.6,2.4l-4.6-1l-5.1-5.8L214.1,514.1z"/>
				<g>
					<path class="st11" d="M239.3,514.4c0,0-0.2,0.2-0.5,0.6c-0.3,0.3-0.8,0.8-1.4,1.5c-1.2,1.3-2.7,3.1-4.1,5.4
						c-0.3,0.5-0.6,0.9-0.8,1.4l-0.2,0.3l-0.1-0.3c-1-2-2-3.7-2.7-5c-0.2-0.3-0.4-0.5-0.6-0.7c-0.2-0.2-0.5-0.2-0.6-0.2
						c-0.4,0-0.6,0.1-0.6,0.1c0,0,0.2-0.2,0.6-0.2c0.2,0,0.5,0.1,0.7,0.2c0.3,0.2,0.5,0.4,0.7,0.7c0.7,1.2,1.7,3,2.8,5l-0.3,0
						c0.3-0.5,0.5-0.9,0.8-1.4c1.4-2.3,3-4.2,4.2-5.4c0.6-0.6,1.2-1.1,1.5-1.4C239.1,514.5,239.3,514.4,239.3,514.4z"/>
				</g>
				<g>
					<path class="st11" d="M213.5,514.9c0,0,0.2,0.2,0.5,0.5c0.3,0.3,0.7,0.8,1.1,1.4c0.9,1.2,2.2,2.8,3.6,4.6
						c0.1,0.1,0.2,0.2,0.2,0.3l-0.3,0c0.5-0.9,0.5-2,0.8-2.9c0.2-0.9,0.7-1.8,1.3-2.2c0.7-0.4,1.3-0.4,1.7-0.2
						c0.2,0.1,0.3,0.2,0.4,0.3c0.1,0.1,0.1,0.1,0.1,0.1c0,0-0.2-0.2-0.5-0.3c-0.4-0.1-1-0.1-1.5,0.3c-0.6,0.4-0.9,1.2-1.1,2.1
						c-0.2,0.9-0.2,2-0.8,3l-0.1,0.2l-0.2-0.2c-0.1-0.1-0.1-0.2-0.2-0.3c-1.4-1.8-2.7-3.5-3.5-4.7c-0.4-0.6-0.8-1.1-1-1.4
						C213.6,515.2,213.5,515,213.5,514.9z"/>
				</g>
				<g>
					<path class="st11" d="M220.2,590.7c0,0,0-0.1,0-0.2c0-0.1,0-0.3,0-0.5c0-0.5,0.1-1.2,0.1-2c0.1-1.8,0.3-4.3,0.5-7.4
						c0.4-6.3,1-14.9,1.7-24.5c0.7-9.6,1.3-18.2,1.8-24.5c0.2-3.1,0.4-5.6,0.6-7.4c0.1-0.9,0.1-1.5,0.2-2c0-0.2,0-0.4,0.1-0.5
						c0-0.1,0-0.2,0-0.2c0,0,0,0.1,0,0.2c0,0.1,0,0.3,0,0.5c0,0.5-0.1,1.2-0.1,2c-0.1,1.8-0.3,4.3-0.5,7.4c-0.4,6.3-1,14.9-1.7,24.5
						c-0.7,9.5-1.3,18.2-1.8,24.5c-0.2,3.1-0.4,5.6-0.6,7.4c-0.1,0.9-0.1,1.5-0.2,2c0,0.2,0,0.4-0.1,0.5
						C220.3,590.6,220.2,590.7,220.2,590.7z"/>
				</g>
				<g>
					<path class="st11" d="M198.5,531.9c0,0,0,0.4-0.1,1.1c-0.1,0.7-0.1,1.7-0.2,2.9c-0.2,2.4-0.4,5.7-0.6,9.4
						c-0.2,3.7-0.4,7-0.7,9.4c-0.1,1.2-0.2,2.2-0.3,2.8c-0.1,0.7-0.2,1-0.2,1c0,0,0-0.4,0.1-1.1c0.1-0.7,0.1-1.7,0.2-2.9
						c0.2-2.4,0.4-5.7,0.6-9.4c0.2-3.7,0.4-7,0.7-9.4c0.1-1.2,0.2-2.2,0.3-2.8C198.4,532.3,198.5,531.9,198.5,531.9z"/>
				</g>
				<g>
					<path class="st9" d="M224.8,519.8c0,0-3.3,4.2-2.8,4.9s2.8,3.7,2.8,3.7h2c0,0,1.9-5.2,1.4-5.9S224.8,519.8,224.8,519.8z"/>
					<polygon class="st9" points="229.8,518.6 226.2,521.4 227.6,524.1 231.3,521.3 					"/>
					<polygon class="st9" points="219.3,520.4 222.6,523.1 224.4,520.4 220.2,517.3 					"/>
					<polygon class="st9" points="224.8,528.4 219.8,573.1 224.8,588.6 231.3,573.2 227,527.8 					"/>
				</g>
				<g>
					<path class="st11" d="M259.8,520c0,0-0.2-0.2-0.6-0.4c-0.4-0.2-1.2-0.4-2.1-0.1c-0.9,0.3-1.7,0.9-2.6,1.8
						c-0.8,0.9-1.7,1.9-2.3,3.1c-1.4,2.4-1.9,5-2,6.8c-0.1,1.8,0.1,3,0.1,3c0,0-0.1-0.3-0.2-0.8c-0.1-0.5-0.1-1.3-0.1-2.2
						c0-1.8,0.5-4.4,1.9-6.9c0.7-1.2,1.5-2.3,2.4-3.2c0.9-0.9,1.8-1.6,2.7-1.8c0.9-0.3,1.7,0,2.2,0.2c0.2,0.1,0.4,0.3,0.5,0.4
						C259.7,520,259.8,520,259.8,520z"/>
				</g>
			</g>
		</g>
		<g>
			<path d="M314.1,388.9c-5.6,3.4-9.5,9.2-11.8,15.3c-2.3,6.2-3.2,12.7-3.9,19.3c-1.8,17.3-2.4,34.7-1.8,52
				c21.2,2.7,42.6,5.4,63.9,3.9c-3.7-24.4-6-48.7-3.1-73.1"/>
			<g>
				<g>
					<g>
						<path class="st9" d="M361.8,591.3L346.3,560l5.9-22.8c0.7,4.8,1.3,9,1.3,9l33.1-1.8c1.2-0.1,2.1-1.2,2-2.4l-6.5-45.7
							c0,0-2.1-21.2-22.1-29.1l0,0c0,0-0.1,0-0.1,0c-0.8-0.3-1.6-0.6-2.5-0.9c-27.1-9.4-52.4-9.3-80.6,0.3c0,0-12.5,3.4-18.6,19.7
							c-6.1,16.3-12.3,40.4-12.3,40.4l28.1,9.9l0.2-4.7l6.2,23.8l-13.6,34.6l47.6,1.2L361.8,591.3z"/>
					</g>
				</g>
				<path class="st9" d="M246.1,526.5l-3.2,14.9c-2.7,12.8,6.8,26,19.8,27.5l69.2,7.1c15.4,1.7,29.1-9.5,30.5-24.9l0,0l-87.3-8.3
					l0.5-8.4L246.1,526.5z"/>
				<path class="st10" d="M332.6,541.7l5.4-1c0,0,12.7-13.9,15.1-14.1c2-0.2,12.8-0.1,16.6,0c0.7,0,1.3,0.6,1.3,1.3l0,0
					c0,0.7-0.6,1.3-1.3,1.3l-12.8,0.5l-0.1,1l12.8,0.2c1.3,0.1,2.1,2.2-2,2.5l-10.7,0.4v0.7l10.9,1.5c0.5,0.1,2,0.4,2,0.9
					c0,0,0.7,1.4-2.4,1.8c-1.1,0.1-10.5-0.2-10.5-0.2l0.4,0.8l9.8,2.1c0.7,0.2,1.2,0.8,1.1,1.6l0,0c-0.1,0.7-0.8,1.3-1.5,1.2
					l-10.4-1l-10.3,8.2h-13.7L332.6,541.7z"/>
				<path class="st17" d="M298.6,460c0,0,13.5,69,18.2,68.4c4.8-0.5,27-66.1,27-66.1S315.4,453.7,298.6,460z"/>
				<g>
					<path class="st11" d="M358.3,526.8c-0.1,0-0.2-4.8-0.2-10.6c0-5.9,0.1-10.6,0.2-10.6c0.1,0,0.2,4.8,0.2,10.6
						C358.5,522,358.4,526.8,358.3,526.8z"/>
				</g>
				<g>
					<path class="st11" d="M275.5,527.2c-0.1,0,0-1.2,0.3-3.1c0.2-1.9,0.6-4.5,1-7.3c0.4-2.9,0.8-5.5,1.1-7.3c0.3-1.9,0.5-3,0.6-3
						c0.1,0-0.1,1.2-0.3,3.1c-0.2,1.9-0.6,4.5-1,7.3c-0.4,2.9-0.8,5.4-1.1,7.3S275.6,527.2,275.5,527.2z"/>
				</g>
				<g>
					<path class="st11" d="M314.5,591.5c0,0,0-0.2,0-0.6c0-0.5,0-1.1,0-1.8c0-1.6,0-3.9,0.1-6.7c0.1-5.7,0.4-13.5,0.8-22.2
						c0.4-8.7,0.7-16.5,0.9-22.2c0.1-2.8,0.2-5.1,0.2-6.7c0-0.8,0-1.4,0.1-1.8c0-0.4,0-0.6,0.1-0.6c0,0,0,0.2,0,0.6
						c0,0.5,0,1.1,0,1.8c0,1.6,0,3.9-0.1,6.7c-0.1,5.7-0.4,13.5-0.8,22.2c-0.4,8.7-0.7,16.5-0.9,22.2c-0.1,2.8-0.2,5.1-0.2,6.7
						c0,0.8,0,1.4-0.1,1.8C314.5,591.3,314.5,591.5,314.5,591.5z"/>
				</g>
				<g>
					<path class="st11" d="M343.8,462.3c0,0,0,0.3,0.1,0.9c0.1,0.6,0.3,1.4,0.7,2.4c0.4,1,1,2.2,1.7,3.5c0.7,1.3,1.7,2.8,2.5,4.6
						c0.8,1.8,1.4,3.9,1,6.3c-0.2,1.2-0.7,2.3-1.4,3.3c-0.7,1-1.6,1.9-2.5,2.9c-1.8,1.8-3.7,3.7-5.2,6c-1.6,2.3-2.7,5-2.7,7.9
						c0,1.5,0.3,2.9,0.9,4.2c0.6,1.3,1.3,2.6,1.7,3.9c0.2,0.7,0.3,1.4,0.3,2.1c-0.1,0.7-0.3,1.4-0.7,2c-0.8,1.2-1.9,2-2.9,2.7
						c-4.1,3-7.8,5.8-11,8.1c-3.1,2.3-5.6,4.1-7.4,5.4c-0.9,0.6-1.5,1.1-2,1.5c-0.2,0.1-0.4,0.3-0.5,0.4c-0.1,0.1-0.2,0.1-0.2,0.1
						c0,0,0.1-0.1,0.2-0.2c0.1-0.1,0.3-0.2,0.5-0.4c0.5-0.4,1.1-0.9,2-1.5c1.8-1.3,4.3-3.2,7.3-5.5c3.1-2.3,6.8-5.1,10.9-8.2
						c1-0.8,2.1-1.5,2.8-2.6c0.3-0.5,0.5-1.2,0.6-1.8c0-0.6-0.1-1.3-0.3-2c-0.4-1.3-1.1-2.5-1.7-3.9c-0.6-1.3-1-2.8-1-4.3
						c0-3,1.2-5.9,2.8-8.2c1.6-2.3,3.5-4.3,5.3-6.1c1.8-1.8,3.4-3.7,3.8-5.9c0.4-2.2-0.2-4.3-1-6.1c-0.7-1.8-1.7-3.3-2.4-4.6
						c-0.7-1.4-1.3-2.6-1.7-3.6c-0.4-1-0.5-1.9-0.6-2.4c0-0.3,0-0.5-0.1-0.6C343.8,462.3,343.8,462.3,343.8,462.3z"/>
				</g>
				<g>
					<path class="st11" d="M316.8,527.8c0,0-0.1,0-0.2,0c-0.2,0-0.4-0.1-0.6-0.1c-0.5-0.1-1.3-0.3-2.3-0.6c-2-0.7-4.8-1.9-7.7-4.4
						c-1.4-1.2-2.8-2.8-4.1-4.6c-1.2-1.8-2.3-4-3-6.4c-0.7-2.4-1-5-0.9-7.8c0.1-1.4,0.3-2.7,0.6-4.1c0.2-1.4,0.5-2.8,0.1-4.1
						c-0.2-0.7-0.6-1.2-1.1-1.7c-0.5-0.4-1.1-0.7-1.8-0.9c-0.7-0.2-1.3-0.4-2-0.7c-0.7-0.3-1.3-0.7-1.8-1.1c-1-1-1.5-2.3-1.8-3.6
						c-0.3-1.3-0.3-2.6-0.2-3.8c0.5-5,1.6-9.3,2.9-12.9c1.3-3.5,2.7-6.3,3.7-8.1c0.5-0.9,0.9-1.6,1.2-2.1c0.1-0.2,0.3-0.4,0.3-0.5
						c0.1-0.1,0.1-0.2,0.1-0.2c0,0,0,0.1-0.1,0.2c-0.1,0.1-0.2,0.3-0.3,0.5c-0.3,0.5-0.7,1.2-1.2,2.1c-1,1.9-2.3,4.6-3.5,8.1
						c-1.2,3.5-2.3,7.9-2.8,12.8c-0.1,1.2,0,2.5,0.2,3.7c0.2,1.2,0.8,2.5,1.7,3.4c0.5,0.4,1,0.8,1.6,1.1c0.6,0.3,1.3,0.4,2,0.7
						c0.7,0.2,1.4,0.5,1.9,1c0.6,0.5,1,1.1,1.2,1.9c0.4,1.5,0.1,2.9-0.1,4.3c-0.3,1.4-0.5,2.7-0.6,4c-0.1,2.7,0.2,5.3,0.9,7.6
						c1.3,4.8,4.1,8.5,6.9,10.9c2.8,2.5,5.6,3.8,7.5,4.5c1,0.4,1.8,0.6,2.3,0.7c0.2,0.1,0.4,0.1,0.6,0.2
						C316.7,527.7,316.8,527.8,316.8,527.8z"/>
				</g>
				<path class="st9" d="M353.2,541.8l-58-1.9l0.1,19.2l38.4,8.4l27,4.3c16.8,0,30.2-15.4,27.6-32l-0.1,0L353.2,541.8z"/>
				<g>
					<path class="st11" d="M369.2,541.5c0,0-0.3,0-0.8,0.1c-0.5,0-1.3,0-2.2,0.1c-1.9,0-4.6,0.1-7.9,0.1c-6.7,0.1-15.9,0.2-26.2,0.1
						c-10.2-0.1-19.5-0.5-26.2-0.9c-3.3-0.2-6-0.4-7.9-0.6c-0.9-0.1-1.6-0.2-2.1-0.2c-0.5-0.1-0.7-0.1-0.7-0.1s0.3,0,0.8,0
						c0.5,0,1.2,0.1,2.2,0.1c1.9,0.1,4.6,0.3,7.9,0.5c6.7,0.4,15.9,0.7,26.1,0.8c10.2,0.1,19.5,0,26.2,0c3.3,0,6,0,7.9,0
						c0.9,0,1.6,0,2.2,0C368.9,541.4,369.2,541.4,369.2,541.5z"/>
				</g>
				<path class="st10" d="M294.7,541.7l-5.4-1c0,0-12.7-13.9-15.1-14.1c-2-0.2-12.8-0.1-16.6,0c-0.7,0-1.3,0.6-1.3,1.3l0,0
					c0,0.7,0.6,1.3,1.3,1.3l12.8,0.5l0.1,1l-12.8,0.2c-1.3,0.1-2.1,2.2,2,2.5l10.7,0.4v0.7l-10.9,1.5c-0.5,0.1-2,0.4-2,0.9
					c0,0-0.7,1.4,2.4,1.8c1.1,0.1,10.5-0.2,10.5-0.2l-0.4,0.8l-9.8,2.1c-0.7,0.2-1.2,0.8-1.1,1.6l0,0c0.1,0.7,0.8,1.3,1.5,1.2
					l10.4-1l10.3,8.2h13.7L294.7,541.7z"/>
				<g>
					<path class="st11" d="M359.7,571.6c0,0-0.2,0-0.7,0c-0.5-0.1-1.1-0.1-1.9-0.2c-1.6-0.2-4-0.5-6.9-0.9
						c-5.8-0.8-13.8-2.1-22.6-3.8c-8.8-1.7-16.7-3.6-22.3-5c-2.8-0.7-5.1-1.3-6.7-1.8c-0.8-0.2-1.4-0.4-1.8-0.5
						c-0.4-0.1-0.6-0.2-0.6-0.2c0,0,0.2,0,0.6,0.1c0.5,0.1,1.1,0.3,1.8,0.4c1.6,0.4,3.9,1,6.7,1.6c5.7,1.4,13.6,3.2,22.4,4.9
						c8.8,1.7,16.8,3,22.5,3.9c2.9,0.4,5.2,0.8,6.9,1c0.8,0.1,1.4,0.2,1.9,0.3C359.5,571.6,359.7,571.6,359.7,571.6z"/>
				</g>
				<g>
					<path class="st11" d="M295.8,559.3c-0.1,0-0.3-1-0.5-2.7c-0.2-1.7-0.5-4.1-0.6-6.7c-0.1-2.6-0.1-5-0.1-6.7
						c0.1-1.7,0.2-2.8,0.2-2.8c0.1,0,0.1,1.1,0.1,2.8c0,1.7,0.1,4.1,0.2,6.7c0.1,2.6,0.3,5,0.5,6.7
						C295.8,558.2,295.9,559.3,295.8,559.3z"/>
				</g>
				<g>
					<path class="st11" d="M302.2,560c0,0-0.1-0.3-0.3-0.7c-0.1-0.5-0.3-1.2-0.5-2c-0.4-1.7-0.7-4.2-0.9-6.9
						c-0.2-2.7-0.1-5.2,0.1-6.9c0.1-0.9,0.2-1.6,0.2-2.1c0.1-0.5,0.1-0.8,0.2-0.8c0.1,0,0,1.1-0.1,2.9c-0.1,1.8-0.1,4.2,0.1,6.9
						c0.2,2.7,0.5,5.1,0.8,6.8C302,558.9,302.2,560,302.2,560z"/>
				</g>
				<g>
					<path class="st11" d="M296.8,543.4c0,0.1-0.3,0.3-0.3,0.8c0,0.3,0.1,0.6,0.4,0.8c0.2,0.2,0.6,0.2,1,0c0.3-0.2,0.5-0.5,0.5-0.8
						c0-0.3-0.3-0.6-0.5-0.7c-0.5-0.3-0.8-0.1-0.9-0.2c-0.1,0,0.4-0.4,1-0.1c0.3,0.1,0.7,0.4,0.8,0.9c0.1,0.5-0.2,1.1-0.7,1.3
						c-0.5,0.3-1.1,0.3-1.5-0.1c-0.4-0.3-0.4-0.8-0.4-1.1C296.3,543.5,296.8,543.4,296.8,543.4z"/>
				</g>
				<g>
					<path class="st11" d="M307.4,562.9c0,0-0.2,0-0.6,0c-0.4,0-1,0-1.7,0c-1.5,0-3.6,0.2-6.2,0.6c-2.6,0.4-5.7,1.1-9.1,2
						c-3.4,0.9-7.1,2-11,2.8c-4,0.9-7.8,1.4-11.4,1.2c-3.5-0.1-6.7-0.8-9.2-1.8c-2.5-1-4.3-2.1-5.5-3.1c-0.6-0.5-1-0.9-1.3-1.1
						c-0.3-0.3-0.4-0.4-0.4-0.4c0,0,0.6,0.6,1.8,1.4c1.2,0.9,3,2,5.5,2.9c2.5,0.9,5.6,1.5,9.1,1.6c3.5,0.1,7.3-0.4,11.2-1.3
						c3.9-0.9,7.6-1.9,11-2.8c3.4-0.9,6.5-1.6,9.1-1.9c2.6-0.4,4.8-0.5,6.3-0.4c0.7,0,1.3,0,1.7,0.1
						C307.2,562.8,307.4,562.9,307.4,562.9z"/>
				</g>
			</g>
			<g>
				<g>
					<g>
						<g>
							<g>
								<path class="st10" d="M332.9,468.1c1.4-7.7,3-15.8,3-15.8s10.2,0.1,14.5-12.5c4.1-12,7.1-40.8,7.1-40.8l0,0
									c-13.2-8.3-30.8-7.4-43,2.2l0,0l-10.2,62.6c-1.2,7.3,4.1,14.1,11.9,15.3h0C324.1,480.4,331.6,475.5,332.9,468.1z"/>
							</g>
							<g>
								<g>
									<path class="st11" d="M349.9,420.7c-0.1,0.9-1,1.5-1.9,1.4c-0.9-0.1-1.6-0.9-1.4-1.8c0.1-0.9,1-1.5,1.9-1.4
										C349.4,419,350,419.8,349.9,420.7z"/>
								</g>
								<g>
									<g>
										<path class="st11" d="M352.9,419.3c-0.2,0.2-1.3-1-3.1-1.3c-1.8-0.3-3.3,0.4-3.4,0.1c-0.1-0.1,0.2-0.5,0.8-0.8
											c0.6-0.3,1.7-0.5,2.8-0.3c1.1,0.2,2,0.8,2.4,1.3C352.9,418.8,353,419.2,352.9,419.3z"/>
									</g>
								</g>
							</g>
							<g>
								<g>
									<path class="st11" d="M331.6,417.8c-0.1,0.9-1,1.5-1.9,1.4c-0.9-0.1-1.6-0.9-1.4-1.8c0.1-0.9,1-1.5,1.9-1.4
										C331,416.1,331.7,416.9,331.6,417.8z"/>
								</g>
								<g>
									<g>
										<path class="st11" d="M334.2,416.7c-0.2,0.2-1.3-1-3.1-1.3c-1.8-0.3-3.3,0.4-3.4,0.1c-0.1-0.1,0.2-0.5,0.8-0.8
											c0.6-0.3,1.7-0.5,2.8-0.3c1.1,0.2,2,0.8,2.4,1.3C334.2,416.2,334.3,416.6,334.2,416.7z"/>
									</g>
								</g>
							</g>
							<g>
								<g>
									<path class="st11" d="M338.3,431.1c0-0.1,1.2-0.1,3,0c0.5,0,0.9,0,1-0.3c0.2-0.3,0.1-0.8-0.1-1.4c-0.2-1.2-0.5-2.4-0.7-3.7
										c-1-5.3-1.6-9.6-1.4-9.6c0.2,0,1.2,4.2,2.2,9.5c0.2,1.3,0.5,2.5,0.7,3.7c0.1,0.5,0.3,1.2-0.1,1.8c-0.2,0.3-0.6,0.5-0.9,0.5
										c-0.3,0-0.6,0-0.8,0C339.4,431.3,338.3,431.2,338.3,431.1z"/>
								</g>
							</g>
							<g>
								<path class="st12" d="M335.8,452.4c0,0-8.8-1-16.5-7.7c0,0,2.6,9.6,15.8,10.7L335.8,452.4z"/>
							</g>
							<g>
								<path class="st12" d="M336.8,435.2c-0.5-1-1.5-1.6-2.7-1.7c-0.8-0.1-1.6,0.2-2.2,0.7c-0.6,0.5-0.8,1.4-0.5,2.1
									c0.4,0.8,1.3,1.1,2.2,1c0.9-0.1,1.7-0.5,2.5-1c0.2-0.1,0.4-0.2,0.6-0.4C336.9,435.8,337,435.5,336.8,435.2"/>
							</g>
							<g>
								<g>
									<path class="st11" d="M332.9,431.4c0.3,0,0,2,1.4,3.6c1.4,1.7,3.5,1.8,3.5,2.1c0,0.1-0.5,0.3-1.4,0.2
										c-0.9-0.1-2.1-0.6-2.9-1.6c-0.9-1-1.1-2.2-1-3C332.4,431.8,332.7,431.3,332.9,431.4z"/>
								</g>
							</g>
						</g>
						<g>
							<path d="M323.2,392c3.5,7.6,14.7,16.9,23.3,20.2c-0.8-1.6-5.6-6-6.4-7.6c3.5,3.8,8.5,8.9,13.9,10.2c0.6,0.2,1.3,0.3,1.9,0.1
								c0.8-0.3,1.1-1.1,1.3-1.9c0.9-3.1,1.7-8.5,1.8-11.8c0.1-3.2-0.8-6.6-3.1-9.2c-2.9-3.3-7.8-4.9-12.4-5.9
								c-3.9-0.8-7.9-1.4-11.8-0.6c-3.8,0.7-7.4,2.9-8.6,6.2"/>
						</g>
						<g>
							<path d="M302.6,420.8c0-3.5,0.1-6.7,0.3-8.9c0.9-6.7,3-31.2,25.6-24.9l-2.4,6.3c0,0,1.7,15.7-9.9,24.2c0,0,0.1,15.7-8,21.4
								C308.3,438.8,302.7,428.2,302.6,420.8"/>
						</g>
						<g>
							<path class="st10" d="M316.7,416.4c-1.3-0.5-2.8-0.7-4.2-0.5c-1.4,0.3-2.7,1-3.5,2.2c-0.8,1.2-1,2.7-0.8,4.1
								c0.2,1.4,0.9,2.7,1.7,3.9c0.6,0.8,1.3,1.6,2.2,2.1c0.9,0.5,2.1,0.6,3,0.1"/>
						</g>
						<g>
							<g>
								<path class="st12" d="M314.5,424.6c0.1,0.1-0.6,0.8-1.8,0.2c-0.6-0.3-1.1-0.9-1.3-1.6c-0.2-0.7-0.3-1.5-0.3-2.4
									c0.1-0.9,0.4-1.8,1-2.3c0.6-0.6,1.4-0.8,2-0.8c1.3,0.2,1.5,1.2,1.4,1.2c-0.1,0.1-0.5-0.5-1.4-0.4c-0.8,0-1.8,1-1.9,2.4
									c-0.1,1.5,0.2,2.8,0.9,3.3C313.8,424.8,314.4,424.5,314.5,424.6z"/>
							</g>
						</g>
					</g>
				</g>
				<path d="M314.5,428.3c-3.5,20.9-0.6,42.3,0,63.5c0.1,2,0.1,4.2-0.8,6c-1.4,2.7-4.6,4.1-7.7,4.3c-3.1,0.2-6.1-0.5-9.2-0.8
					c-0.3-2-0.7-4.1-1-6.1c-1,2.3-2,4.7-3.1,7c1.3-14.9,2.8-29.8,4.4-44.6"/>
			</g>
		</g>
	</g>
	<path class="st18" d="M147,591h-43.9V277.4c0-12.1,9.8-21.9,21.9-21.9h0c12.1,0,21.9,9.8,21.9,21.9V591z"/>
	<circle class="st18" cx="125.3" cy="196.7" r="21.2"/>
	<path class="st18" d="M556.9,591H513V371.5c0-12.1,9.8-21.9,21.9-21.9l0,0c12.1,0,21.9,9.8,21.9,21.9V591z"/>
	<circle class="st18" cx="535.6" cy="303.3" r="22.6"/>
	<circle class="st19" cx="521" cy="566.1" r="25.4"/>
	<path class="st20" d="M157.2,591H73.5c-1.7,0-3.1-1.4-3.1-3.1v-36.7c0-1.7,1.4-3.1,3.1-3.1h83.7c1.7,0,3.1,1.4,3.1,3.1v36.7
		C160.3,589.6,158.9,591,157.2,591z"/>
	<path class="st21" d="M370.8,554.5l-33.4,50.5c-0.3,0.4,0,1,0.6,1h61.4c0.5,0,0.8-0.5,0.6-1L372,554.5
		C371.7,554.1,371.1,554,370.8,554.5z"/>
	<path class="st21" d="M606.3,543.7l-68.2-25.3c-0.6-0.2-1.2,0.3-1.1,0.9l14.1,69.3c0.1,0.6,0.8,0.8,1.3,0.4l54.1-44
		C607,544.6,606.9,543.9,606.3,543.7z"/>
	<circle class="st22" cx="82.2" cy="238.9" r="115.4"/>
	<circle class="st22" cx="509" cy="81.3" r="115.4"/>
	<line class="st18" x1="41.5" y1="591.5" x2="597" y2="591.5"/>
</g>
</svg>
